<?xml version="1.0" standalone="no"?>
<!DOCTYPE svg PUBLIC "-//W3C//DTD SVG 20010904//EN"
 "http://www.w3.org/TR/2001/REC-SVG-20010904/DTD/svg10.dtd">
<svg version="1.0" xmlns="http://www.w3.org/2000/svg"
 width="480.000000pt" height="480.000000pt" viewBox="0 0 480.000000 480.000000"
 preserveAspectRatio="xMidYMid meet">
<metadata>
Created by potrace 1.14, written by Peter Selinger 2001-2017
</metadata>
<g transform="translate(0.000000,480.000000) scale(0.100000,-0.100000)"
fill="#000000" stroke="none">
<path d="M861 4738 c-26 -147 -43 -346 -38 -453 6 -114 38 -260 71 -324 l18
-34 -58 6 c-113 12 -215 47 -317 108 -58 36 -62 25 -61 -164 1 -132 5 -178 23
-247 39 -149 113 -306 183 -385 34 -39 31 -50 -12 -58 -38 -8 -38 -27 1 -66
31 -31 52 -36 132 -32 37 3 37 2 25 -23 -18 -40 2 -55 46 -34 19 9 37 14 40
11 3 -4 6 -26 6 -51 l0 -44 -62 7 c-73 7 -148 30 -194 57 -19 11 -35 15 -38 9
-11 -16 154 -142 238 -181 l79 -38 -29 -15 c-16 -8 -62 -25 -102 -37 -70 -21
-101 -40 -65 -40 10 0 63 7 118 15 127 18 132 18 117 3 -22 -22 -12 -31 32
-26 l44 5 -18 -52 c-10 -29 -24 -64 -32 -79 l-14 -26 -64 65 c-35 36 -69 65
-74 65 -15 0 2 -134 28 -215 l24 -75 -38 0 c-71 0 -245 21 -294 35 -57 17 -76
19 -76 7 0 -10 125 -159 155 -184 11 -10 16 -18 10 -18 -5 0 -41 -2 -78 -3
-56 -2 -71 -6 -83 -22 -17 -23 -15 -91 2 -88 7 1 18 -34 29 -90 31 -173 86
-355 176 -587 62 -160 45 -150 266 -165 166 -12 343 -23 633 -40 205 -13 373
-25 376 -27 2 -3 34 -119 47 -175 4 -19 -2 -26 -40 -43 -53 -23 -61 -19 -88
40 -10 22 -22 40 -27 40 -14 0 -25 -39 -27 -99 -1 -38 -7 -60 -18 -68 -22 -17
-99 -80 -143 -118 -54 -47 -172 -139 -202 -159 -21 -14 -28 -26 -28 -50 0 -23
-25 -69 -99 -177 -103 -152 -142 -234 -140 -297 1 -20 -4 -50 -10 -65 -14 -36
-14 -37 3 -37 8 0 18 10 22 23 l8 22 7 -25 c5 -18 8 -8 9 35 l2 60 26 -58 27
-57 182 0 c101 0 183 2 183 4 0 2 -12 35 -26 72 -76 200 -154 451 -148 477 3
17 1 27 -6 27 -21 0 -6 17 52 61 31 24 108 88 171 142 64 53 118 97 121 97 3
0 6 -22 6 -49 0 -64 41 -193 79 -251 17 -24 29 -46 27 -47 -2 -2 -23 1 -47 6
-24 5 -109 17 -189 25 -80 9 -155 19 -167 22 -36 10 -29 -15 26 -92 105 -150
297 -283 433 -302 21 -2 38 -6 38 -7 0 -1 -11 -27 -24 -57 -35 -79 -47 -128
-32 -128 7 0 20 25 30 55 9 30 21 57 27 61 6 3 35 -21 65 -55 l56 -61 65 0
c70 0 89 8 224 97 37 24 71 43 77 43 5 0 13 -31 17 -70 5 -52 11 -70 22 -70
12 0 14 12 9 73 -5 65 -3 74 14 85 11 7 20 17 20 23 0 5 36 51 80 102 43 51
138 162 211 247 72 85 139 160 150 168 10 7 19 18 19 24 0 5 14 28 31 50 36
45 31 63 -6 28 l-26 -24 6 44 c33 272 30 265 82 206 89 -102 174 -226 369
-543 57 -93 124 -243 124 -279 0 -6 -21 -24 -47 -41 -27 -16 -85 -58 -130 -94
l-82 -64 111 -3 c81 -2 113 1 119 10 4 7 15 43 25 81 18 74 28 79 57 29 18
-30 18 -35 3 -72 -19 -47 -19 -50 -7 -50 5 0 14 15 20 33 l12 32 19 -25 c11
-14 20 -28 20 -32 0 -9 40 -11 40 -2 0 8 -86 168 -117 218 -14 21 -31 59 -39
85 -7 26 -33 78 -57 116 -24 39 -97 156 -162 260 -65 105 -145 226 -179 270
-53 69 -93 135 -82 135 2 0 36 -27 77 -60 40 -33 78 -59 84 -57 14 5 24 83 17
136 -5 43 -5 44 19 36 55 -17 172 -35 289 -44 69 -6 140 -13 158 -17 17 -3 32
-2 32 2 0 10 -111 158 -159 214 l-31 35 58 12 c69 14 221 67 282 98 65 33 188
121 260 185 140 125 237 300 275 495 9 44 20 88 25 97 6 10 10 21 10 24 0 14
-279 -7 -390 -30 -63 -13 -116 -22 -118 -21 -5 4 76 85 85 85 12 0 121 228
134 280 6 25 14 50 19 55 4 6 8 49 9 97 1 73 6 97 30 148 31 66 67 197 57 207
-3 4 -45 -6 -93 -20 -47 -15 -87 -26 -89 -24 -1 1 17 42 42 91 24 48 44 94 44
102 0 8 11 50 25 92 32 99 71 286 91 432 27 201 48 759 36 983 l-4 77 -285 0
-285 0 -62 -48 c-33 -27 -131 -97 -216 -157 -241 -168 -373 -283 -485 -425
-37 -47 -69 -87 -71 -89 -2 -2 1 11 6 30 13 43 13 99 1 99 -11 0 -168 -301
-197 -375 -10 -28 -26 -65 -34 -83 l-16 -33 -44 133 c-71 221 -110 380 -110
451 0 21 -4 28 -17 25 -27 -5 -44 -90 -46 -240 -1 -76 -4 -138 -7 -138 -3 0
-23 21 -43 48 -21 26 -59 63 -84 82 -48 38 -80 93 -153 265 -24 55 -47 106
-53 113 -20 25 -29 11 -25 -43 1 -30 1 -55 -2 -54 -3 0 -32 33 -65 72 -33 40
-127 138 -208 220 l-148 147 -469 0 -468 0 -11 -62z m314 -955 c-3 -27 -9 -59
-12 -71 -5 -20 -2 -23 17 -20 30 4 43 -38 27 -82 -17 -46 -34 -36 -53 30 -12
45 -21 60 -33 58 -22 -4 -100 -156 -101 -196 0 -18 -6 -35 -12 -37 -7 -3 -47
2 -88 9 -41 8 -67 15 -58 15 27 2 32 21 11 49 -23 32 -55 122 -43 122 4 0 22
-23 40 -50 45 -71 90 -90 90 -39 0 40 43 109 98 158 85 74 117 100 121 101 2
0 0 -21 -4 -47z m455 -92 c0 -17 -154 -153 -201 -176 -54 -28 -55 -27 -65 58
l-6 52 44 1 c26 1 75 15 123 37 84 37 105 43 105 28z m275 -198 c-4 -49 -13
-101 -21 -117 -18 -38 -18 -65 1 -72 17 -7 42 8 94 55 18 17 38 31 42 31 13 0
10 -70 -5 -113 -14 -42 -36 -72 -57 -79 -27 -9 11 -38 49 -38 19 0 66 -9 104
-21 l69 -20 -23 -42 c-30 -54 -92 -87 -165 -87 -64 0 -70 -18 -18 -49 32 -18
47 -41 27 -41 -7 0 -52 28 -62 39 -3 3 -13 12 -22 20 -27 20 -48 -2 -48 -51
l0 -40 -37 7 c-20 3 -55 19 -77 35 -58 40 -149 137 -141 150 4 6 -3 27 -14 46
-12 19 -21 39 -21 43 0 8 80 45 84 40 1 -2 11 -26 21 -54 33 -90 119 -153 154
-112 27 34 -33 117 -84 117 -31 0 -33 -16 -2 -26 32 -9 57 -34 57 -56 0 -54
-77 20 -101 97 l-18 59 29 26 c40 34 90 100 90 118 0 10 -8 13 -27 9 l-28 -5
23 15 c12 9 22 25 22 36 0 11 15 38 33 61 19 23 42 56 52 74 11 17 21 32 23
32 3 0 1 -39 -3 -87z m-1151 32 c27 -14 59 -25 70 -25 19 0 19 -1 -4 -13 -22
-11 -25 -20 -28 -72 -4 -68 22 -131 66 -157 l24 -15 -31 -22 c-17 -12 -31 -31
-31 -40 0 -25 24 -43 46 -35 13 5 16 4 9 -3 -13 -13 -90 -32 -113 -28 -59 12
-69 16 -69 30 0 9 23 22 64 36 35 11 63 24 63 28 0 4 -19 23 -41 41 -26 21
-50 53 -66 88 -34 78 -44 212 -16 212 4 0 30 -11 57 -25z m1355 -19 c30 -69
43 -145 31 -186 -5 -19 -10 -46 -10 -59 0 -21 3 -23 30 -18 16 4 47 18 70 32
22 14 43 25 47 25 15 0 -44 -53 -79 -71 -25 -13 -38 -26 -38 -39 0 -11 -3 -20
-6 -20 -9 0 -118 32 -123 36 -2 2 4 15 14 30 12 19 19 56 22 125 7 118 -1 124
-75 58 l-47 -41 -3 33 c-3 25 2 38 19 52 16 13 24 15 30 6 8 -14 37 -5 44 13
20 57 26 68 39 68 8 0 24 -20 35 -44z m946 -113 c14 -21 25 -46 25 -55 0 -10
4 -18 10 -18 19 0 41 -62 39 -108 -4 -61 12 -64 73 -17 26 19 49 35 52 35 16
0 2 -27 -34 -66 -63 -68 -50 -84 52 -64 131 25 120 26 112 -6 -12 -53 -65
-153 -105 -197 -21 -25 -57 -52 -79 -61 -22 -9 -40 -20 -40 -25 0 -5 25 -24
55 -41 30 -17 55 -35 55 -40 0 -29 -102 -26 -169 5 -57 27 -87 22 -61 -10 7
-8 10 -19 6 -23 -9 -9 -35 25 -43 56 -8 32 0 36 37 17 40 -21 94 -16 98 8 2
11 -7 30 -20 44 -14 16 -19 27 -11 30 6 2 31 17 56 34 51 34 75 76 79 140 l3
44 -108 3 c-97 2 -108 5 -103 20 14 49 13 95 -3 162 -18 75 -42 103 -55 63 -3
-10 -20 -34 -36 -53 -25 -29 -32 -32 -40 -20 -16 25 -11 66 10 91 16 19 21 21
29 10 7 -11 10 -11 17 0 5 8 10 23 11 34 6 37 12 45 37 45 18 0 33 -11 51 -37z
m956 -103 c62 -77 90 -135 92 -193 3 -59 23 -58 85 3 28 27 53 50 56 50 14 0
3 -22 -39 -79 -25 -34 -45 -66 -45 -71 0 -16 70 -11 139 10 36 11 67 17 69 15
10 -9 -22 -104 -56 -169 -34 -66 -85 -116 -133 -131 -32 -10 -22 -23 42 -55
50 -26 59 -34 49 -46 -18 -21 -100 -18 -160 6 -61 24 -70 25 -70 5 0 -25 -19
-17 -26 10 -9 36 -1 39 39 20 42 -19 76 -17 91 7 8 14 5 23 -17 46 l-28 29 31
13 c64 26 96 83 103 180 l2 35 -108 -1 -108 0 7 42 c8 58 -35 214 -60 214 -6
0 -26 -25 -44 -55 -18 -30 -37 -55 -41 -55 -18 0 -20 73 -4 101 15 24 18 26
28 12 17 -23 25 -5 32 72 3 36 9 62 14 58 4 -4 31 -37 60 -73z m-207 18 c3
-13 15 -63 26 -113 11 -49 22 -100 25 -112 8 -35 21 -28 60 33 20 30 41 54 48
51 14 -4 35 -77 36 -127 1 -19 -6 -48 -14 -64 -8 -15 -15 -29 -15 -31 0 -1 53
0 118 3 l119 5 -7 -50 c-9 -76 -52 -119 -138 -140 -43 -11 -44 -25 -2 -36 37
-9 60 -24 60 -38 0 -15 -39 -10 -91 12 -27 12 -52 19 -56 16 -3 -4 0 -27 7
-52 7 -25 10 -48 7 -51 -3 -4 -31 -3 -62 1 -68 8 -262 105 -257 128 1 8 -15
30 -37 49 l-40 34 34 27 c19 15 40 27 48 27 7 0 28 -18 46 -40 59 -74 170
-116 179 -68 6 30 -81 94 -112 82 -26 -10 -18 -21 18 -28 33 -6 75 -41 63 -52
-14 -15 -79 22 -126 71 -28 30 -51 56 -51 60 0 3 10 22 23 43 25 39 47 95 47
118 0 19 -20 17 -35 -2 -6 -9 -17 -15 -24 -13 -9 3 -6 13 9 32 12 15 19 34 16
42 -3 8 5 40 18 73 13 32 26 75 30 95 8 42 21 48 30 15z m-2069 -7 c-2 -5 -17
-11 -33 -14 -17 -4 -33 -16 -40 -31 -19 -42 -101 -74 -210 -81 -41 -2 -49 -11
-34 -35 23 -37 16 -43 -47 -36 -40 5 -62 3 -66 -4 -10 -16 8 -32 39 -35 38 -5
49 -14 35 -32 -18 -20 -115 -16 -157 8 -43 25 -50 24 -64 -6 -14 -31 -25 -31
-63 1 -16 14 -25 24 -20 22 14 -4 200 59 270 92 33 16 80 47 105 70 57 54 115
79 204 89 73 7 90 6 81 -8z m-505 -30 c0 -9 -38 -26 -82 -37 -17 -4 -28 -2
-28 5 0 6 12 17 28 25 30 17 82 21 82 7z m-284 -136 c-7 -14 -26 -35 -42 -47
l-29 -23 23 29 c27 35 28 46 5 47 -12 1 -10 4 7 9 45 14 50 12 36 -15z m1414
19 c0 -22 -114 -164 -132 -164 -6 0 -16 -7 -23 -16 -6 -9 -43 -27 -81 -39 -63
-20 -70 -21 -81 -6 -18 23 -16 31 7 31 21 0 81 28 111 52 23 18 72 115 66 131
-3 9 14 13 64 14 38 1 69 0 69 -3z m-834 -46 c9 -18 57 -75 107 -125 50 -51
84 -93 77 -93 -8 0 -26 12 -41 26 -28 26 -53 26 -42 -1 4 -12 -4 -15 -36 -15
-47 0 -174 57 -164 73 3 6 32 7 69 4 52 -5 64 -3 64 8 0 8 -17 19 -39 25 -41
11 -76 40 -48 40 21 0 30 42 12 53 -22 12 -18 37 5 37 12 0 26 -12 36 -32z
m-511 -58 c6 -10 -50 -79 -58 -70 -2 3 -2 22 1 43 3 31 8 37 28 37 12 0 25 -4
29 -10z m94 -95 c2 -3 -25 -5 -60 -5 l-64 1 23 19 c22 18 26 19 60 4 20 -8 38
-17 41 -19z m1465 -50 c16 -24 202 -153 257 -177 36 -16 32 -32 -9 -36 -21 -2
-37 3 -52 18 -19 19 -26 20 -49 11 -38 -16 -211 8 -211 29 0 12 51 24 93 21
28 -2 37 1 37 13 0 9 -12 18 -27 21 -16 4 -38 8 -50 11 -22 4 -33 24 -14 24
14 0 1 37 -20 56 -25 23 -24 34 5 34 14 0 30 -10 40 -25z m-630 -28 c-8 -4
-14 -15 -14 -22 0 -8 -4 -15 -9 -15 -13 0 -20 23 -14 53 5 26 6 26 28 9 18
-14 20 -19 9 -25z m183 -42 c12 -10 20 -22 17 -27 -7 -11 -57 -10 -90 2 -30
12 -90 57 -61 47 24 -9 57 9 57 30 0 13 6 12 28 -9 15 -14 37 -34 49 -43z
m-422 25 c21 -8 21 -8 -27 -24 -19 -6 -33 8 -23 24 7 12 22 12 50 0z m112 -24
c-3 -8 1 -20 9 -26 13 -11 20 -40 10 -40 -2 0 -11 -3 -20 -6 -11 -4 -19 2 -25
19 -12 31 -3 67 16 67 9 0 13 -6 10 -14z m188 -47 c-11 -17 -35 -9 -35 11 0
18 3 19 20 10 11 -6 18 -15 15 -21z m1585 -31 c26 -24 102 -72 170 -107 l122
-64 -43 -22 c-47 -24 -59 -23 -59 3 0 29 -17 47 -32 35 -24 -20 -88 -26 -151
-13 -34 7 -66 17 -71 21 -12 11 37 29 79 29 37 0 56 17 34 31 -8 5 -31 9 -51
9 -37 0 -57 13 -39 25 14 8 2 37 -23 57 -18 15 -19 19 -6 28 20 13 16 15 70
-32z m-1521 11 c35 -12 38 -26 16 -69 -21 -41 -41 -38 -50 7 -4 21 -11 41 -17
44 -11 7 -2 29 11 29 4 0 22 -5 40 -11z m899 -111 c-5 -23 -11 -45 -14 -47 -9
-9 -34 25 -43 57 l-10 32 39 0 38 0 -10 -42z m-228 24 c0 -8 -65 -32 -84 -32
-14 0 -5 29 12 33 30 8 72 7 72 -1z m143 -32 c3 -13 0 -20 -10 -20 -8 0 -23
-10 -32 -22 -21 -25 -41 -17 -41 17 0 16 8 26 28 33 40 15 49 14 55 -8z m1101
-107 c-3 -27 -9 -50 -11 -53 -9 -10 -53 52 -53 76 0 21 5 24 36 24 l35 0 -7
-47z m-2566 -74 c217 -28 252 -35 252 -50 0 -11 11 -19 35 -23 19 -4 35 -11
35 -16 0 -6 -16 -10 -35 -10 -39 0 -45 -16 -20 -60 8 -14 14 -28 15 -32 0 -3
-30 -11 -67 -17 -38 -6 -110 -18 -162 -26 -52 -8 -125 -15 -162 -15 -66 0 -69
1 -111 43 -55 54 -91 127 -96 196 l-5 54 34 -6 c19 -3 148 -20 287 -38z m917
-119 c295 -39 380 -52 390 -60 6 -5 23 -10 40 -12 19 -2 31 -9 33 -20 3 -15
-4 -18 -38 -18 l-42 0 7 -37 c7 -43 40 -104 61 -116 24 -13 16 -25 -28 -41
-106 -39 -282 -49 -369 -22 -152 47 -262 161 -273 282 -5 58 2 74 33 69 14 -3
98 -14 186 -25z m668 -86 c42 -7 45 -15 20 -44 -27 -32 -114 -103 -119 -98 -2
3 3 24 11 48 8 23 15 55 15 71 0 32 6 34 73 23z m-1802 -889 l-6 -70 -52 49
c-29 27 -53 53 -53 57 0 5 15 9 33 9 17 1 43 7 57 15 14 7 26 13 26 12 1 -1
-1 -33 -5 -72z m843 -412 c10 -36 29 -174 24 -179 -3 -2 -29 30 -58 72 l-53
77 27 24 c32 27 53 29 60 6z"/>
<path d="M2450 16 c0 -10 9 -16 21 -16 24 0 21 23 -4 28 -10 2 -17 -3 -17 -12z"/>
</g>
</svg>
